<svg width="40" height="40" viewBox="0 0 40 40" fill="none" xmlns="http://www.w3.org/2000/svg">
<path d="M26.6667 13.3333C29.3189 13.3333 31.8625 14.3868 33.7378 16.2622C35.6132 18.1375 36.6668 20.6811 36.6668 23.3333V34.9999H30.0001V23.3333C30.0001 22.4492 29.6489 21.6014 29.0238 20.9762C28.3987 20.3511 27.5508 19.9999 26.6667 19.9999C25.7827 19.9999 24.9348 20.3511 24.3097 20.9762C23.6846 21.6014 23.3334 22.4492 23.3334 23.3333V34.9999H16.6667V23.3333C16.6667 20.6811 17.7203 18.1375 19.5957 16.2622C21.471 14.3868 24.0146 13.3333 26.6667 13.3333V13.3333Z" stroke="#F6F2F2" stroke-width="3.33" stroke-linecap="round" stroke-linejoin="round"/>
<path d="M9.99992 15H3.33325V35H9.99992V15Z" stroke="#F6F2F2" stroke-width="3.33" stroke-linecap="round" stroke-linejoin="round"/>
<path d="M6.66658 9.99992C8.50753 9.99992 9.99992 8.50753 9.99992 6.66658C9.99992 4.82564 8.50753 3.33325 6.66658 3.33325C4.82564 3.33325 3.33325 4.82564 3.33325 6.66658C3.33325 8.50753 4.82564 9.99992 6.66658 9.99992Z" stroke="#F6F2F2" stroke-width="3.33" stroke-linecap="round" stroke-linejoin="round"/>
</svg>
